<?xml version="1.0" encoding="UTF-8" standalone="no"?>
<!DOCTYPE svg PUBLIC "-//W3C//DTD SVG 1.1//EN" "http://www.w3.org/Graphics/SVG/1.1/DTD/svg11.dtd">
<svg width="100%" height="100%" viewBox="0 0 48 48" version="1.1" xmlns="http://www.w3.org/2000/svg" xmlns:xlink="http://www.w3.org/1999/xlink" xml:space="preserve" xmlns:serif="http://www.serif.com/" style="fill-rule:evenodd;clip-rule:evenodd;stroke-linejoin:round;stroke-miterlimit:2;">
    <g id="_Group_">
        <ellipse id="_Ellipse_" cx="24" cy="45.5" rx="19.5" ry="1.5" style="fill:rgb(69,65,60);fill-opacity:0.15;"/>
        <path id="_Path_" d="M42,40.5C42,42.694 40.194,44.5 38,44.5L10,44.5C7.806,44.5 6,42.694 6,40.5L6,27C6,17.125 14.125,9 24,9C33.875,9 42,17.125 42,27L42,40.5Z" style="fill:rgb(218,237,247);fill-rule:nonzero;"/>
        <path id="_Path_2_" serif:id="_Path_2" d="M24,9C14.125,9 6,17.125 6,27L6,32C6,22.125 14.125,14 24,14C33.875,14 42,22.125 42,32L42,27C42,17.125 33.875,9 24,9Z" style="fill:white;fill-rule:nonzero;"/>
        <path id="_Path_3_" serif:id="_Path_3" d="M42,40.5C42,42.694 40.194,44.5 38,44.5L10,44.5C7.806,44.5 6,42.694 6,40.5L6,27C6,17.125 14.125,9 24,9C33.875,9 42,17.125 42,27L42,40.5Z" style="fill:none;fill-rule:nonzero;"/>
        <path id="_Rectangle_" d="M30.5,36C30.5,34.896 29.604,34 28.5,34L19.5,34C18.396,34 17.5,34.896 17.5,36L17.5,44C17.5,45.104 18.396,46 19.5,46L28.5,46C29.604,46 30.5,45.104 30.5,44L30.5,36Z" style="fill:rgb(192,220,235);"/>
        <rect id="_Rectangle_2_" serif:id="_Rectangle_2" x="17.5" y="38.5" width="13" height="2"/>
        <path id="_Path_4_" serif:id="_Path_4" d="M45.5,35.92C45.501,36.278 45.31,36.611 45,36.79L42,38.5L42,26L45,27.71C45.31,27.889 45.501,28.222 45.5,28.58L45.5,35.92Z" style="fill-rule:nonzero;"/>
        <path id="_Path_5_" serif:id="_Path_5" d="M2.5,35.92C2.499,36.278 2.69,36.611 3,36.79L6,38.5L6,26L3,27.71C2.69,27.889 2.499,28.222 2.5,28.58L2.5,35.92Z" style="fill-rule:nonzero;"/>
        <path id="_Path_6_" serif:id="_Path_6" d="M24,9C25.12,4.33 29.789,1.337 34.5,2.27" style="fill:none;fill-rule:nonzero;"/>
        <circle id="_Ellipse_2_" serif:id="_Ellipse_2" cx="36" cy="3.5" r="2.5" style="fill:rgb(255,98,66);"/>
        <path id="_Rectangle_3_" serif:id="_Rectangle_3" d="M30.5,36C30.5,34.896 29.604,34 28.5,34L19.5,34C18.396,34 17.5,34.896 17.5,36L17.5,44C17.5,45.104 18.396,46 19.5,46L28.5,46C29.604,46 30.5,45.104 30.5,44L30.5,36Z" style="fill:none;"/>
        <path id="_Rectangle_4_" serif:id="_Rectangle_4" d="M19.5,34L28.5,34C29.597,34 30.5,34.903 30.5,36L30.5,38.5L17.5,38.5L17.5,36C17.5,34.903 18.403,34 19.5,34Z" style="fill:rgb(255,98,66);fill-rule:nonzero;"/>
        <path d="M33.5,11.71C27.692,8.101 20.308,8.101 14.5,11.71L14.5,24L33.5,24L33.5,11.71Z" style="fill:none;fill-rule:nonzero;"/>
        <circle id="_Ellipse_3_" serif:id="_Ellipse_3" cx="32.5" cy="25" r="5" style="fill:rgb(0,223,235);"/>
        <circle id="_Ellipse_4_" serif:id="_Ellipse_4" cx="32.5" cy="25" r="2" style="fill:rgb(98,123,140);"/>
        <circle id="_Ellipse_5_" serif:id="_Ellipse_5" cx="15.5" cy="25" r="5" style="fill:rgb(0,223,235);"/>
        <circle id="_Ellipse_6_" serif:id="_Ellipse_6" cx="15.5" cy="25" r="2" style="fill:rgb(98,123,140);"/>
    </g>
</svg>
